<?xml version="1.0" encoding="utf-8"?>
<!-- Generator: Adobe Illustrator 15.0.0, SVG Export Plug-In . SVG Version: 6.00 Build 0)  -->
<!DOCTYPE svg PUBLIC "-//W3C//DTD SVG 1.1//EN" "http://www.w3.org/Graphics/SVG/1.1/DTD/svg11.dtd">
<svg version="1.1" id="Capa_1" xmlns="http://www.w3.org/2000/svg" xmlns:xlink="http://www.w3.org/1999/xlink" x="0px" y="0px"
	 width="841.889px" height="595.281px" viewBox="0 0 841.889 595.281" enable-background="new 0 0 841.889 595.281"
	 xml:space="preserve">
<g>
	<path fill="#333333" d="M212.577,404.981c0,0.702-0.702,0.702-0.702,1.403c0,0-0.701,0-1.403,0c-0.701,0-0.701,0-1.402-0.701
		c-0.701-0.702-1.402-0.702-2.104-1.403c-0.701-0.702-1.402-0.702-2.806-1.402c-1.403,0-2.104,0-3.509,0c-1.403,0-2.104,0-3.508,0.7
		c-0.702,0-2.104,0.702-2.104,1.403c-0.701,0.702-1.402,1.403-1.402,2.104s-0.702,1.402-0.702,2.807s0,2.104,0.702,2.807
		c0.701,0.701,1.402,1.402,2.806,2.104c1.403,0.701,2.104,1.402,3.509,1.402c1.402,0.701,2.807,0.701,4.21,1.403
		c1.402,0.701,2.806,1.402,4.209,1.402c1.402,0.702,2.807,1.402,3.508,2.807c0.702,1.403,2.104,2.104,2.807,3.508
		c0.702,1.404,0.701,3.509,0.701,5.612c0,2.105-0.701,4.21-1.402,6.314c-0.701,2.104-2.104,3.508-3.509,4.91
		c-1.401,1.403-3.508,2.808-5.612,3.509c-2.104,0.7-4.91,1.402-7.717,1.402c-1.402,0-3.508,0-4.911-0.7
		c-1.402,0-2.807-0.702-4.21-1.403c-1.402-0.702-2.806-1.403-4.209-2.105c-1.402-0.701-2.104-1.401-3.508-2.806l2.807-4.21
		l0.701-0.701c0.701,0,0.701,0,1.403,0c0.701,0,1.402,0,2.104,0.701c0.7,0.702,1.402,0.702,2.104,1.403
		c0.702,0.701,2.104,1.402,3.508,1.402c1.403,0.701,2.808,0.701,4.21,0.701c2.807,0,4.911-0.701,6.313-2.104
		c1.402-1.403,2.104-2.808,2.104-5.612c0-1.403,0-2.104-0.702-3.508c-0.7-0.702-1.402-1.403-2.806-2.104
		c-1.403-0.702-2.104-1.402-3.509-1.402c0,0-2.104-0.702-3.508-0.702c-1.402-0.701-2.807-0.701-4.209-1.403
		c-1.403-0.701-2.808-1.402-3.509-2.806c-1.402-1.403-2.104-2.104-2.807-4.21c-0.701-1.403-0.701-3.509-0.701-5.612
		c0-2.104,0.701-3.508,1.403-5.612c0.701-2.104,2.104-3.508,3.508-4.911c1.404-1.402,2.806-2.104,4.911-3.508
		c2.104-0.702,4.209-1.402,7.016-1.402s5.612,0.7,8.419,1.402c2.807,0.701,4.911,2.104,6.313,4.209L212.577,404.981z"/>
	<path fill="#333333" d="M237.834,409.892c2.806,0,4.91,0.701,7.016,1.403c2.104,0.7,4.209,2.104,5.612,3.508
		c1.402,1.403,2.807,3.508,3.508,5.611c0.701,2.104,1.403,4.911,1.403,7.719c0,2.806-0.702,5.611-1.403,7.717
		c-0.701,2.104-2.104,4.21-3.508,5.613c-1.403,1.401-3.508,2.806-5.612,3.508c-2.104,0.701-4.911,1.401-7.016,1.401
		c-2.105,0-4.911-0.7-7.018-1.401c-2.104-0.702-4.209-2.105-5.611-3.508c-1.403-1.403-2.807-3.51-3.509-5.613
		c-0.7-2.104-1.402-4.911-1.402-7.717c0-2.808,0.702-5.613,1.402-7.719c0.702-2.104,2.104-4.209,3.509-5.611
		c1.403-1.403,3.508-2.808,5.611-3.508C232.923,409.892,235.028,409.892,237.834,409.892z M237.834,440.06
		c2.806,0,4.91-0.702,6.313-2.807c1.403-2.105,2.105-4.911,2.105-9.12c0-4.21-0.702-7.017-2.105-9.121
		c-1.402-2.104-3.508-2.807-6.313-2.807c-2.808,0-5.613,0.701-7.018,2.807c-1.401,2.104-2.104,4.911-2.104,9.121
		c0,3.508,0.702,7.016,2.104,9.12C232.923,439.358,235.028,440.06,237.834,440.06z"/>
	<path fill="#333333" d="M270.808,394.459v51.916h-8.419v-51.916H270.808z"/>
	<path fill="#333333" d="M287.646,410.594v23.151c0,2.104,0.701,4.209,1.403,4.911c0.701,1.403,2.806,2.104,4.911,2.104
		c1.401,0,2.806,0,4.209-0.701c1.403-0.702,2.807-1.403,3.508-2.807v-25.958h8.419v35.779h-5.612c-1.402,0-2.104-0.702-2.104-1.402
		l-0.702-2.808c-0.701,0.702-1.403,1.403-2.104,2.105c-0.701,0.701-1.403,1.401-2.808,1.401c-0.701,0.702-2.104,0.702-2.806,0.702
		s-2.105,0.701-3.508,0.701c-2.105,0-3.51,0-4.911-0.701c-1.403-0.702-2.808-1.402-3.508-2.807
		c-0.702-1.403-2.105-2.807-2.105-4.209c-0.701-1.403-0.701-3.508-0.701-5.613v-23.15h8.419L287.646,410.594L287.646,410.594z"/>
	<path fill="#333333" d="M344.473,418.311l-0.701,0.701c0,0-0.702,0-1.402,0c-0.701,0-0.701,0-1.403-0.701
		c-0.701,0-0.701-0.701-1.403-0.701c-0.701,0-1.401-0.702-2.104-0.702c-0.701,0-2.104-0.701-2.808-0.701
		c-1.401,0-2.806,0-4.209,0.701c-1.402,0.702-2.104,1.403-2.807,2.104c-0.701,0.702-1.402,2.104-1.402,3.508
		c-0.702,1.403-0.702,2.807-0.702,4.911s0,3.508,0.702,4.911c0.701,1.402,0.701,2.807,2.104,3.508
		c1.402,0.702,1.402,2.104,2.806,2.104c1.403,0.701,2.105,0.701,3.508,0.701c1.403,0,2.808,0,3.51-0.701
		c0.7,0,1.401-0.701,2.104-1.402c0.701-0.702,1.403-0.702,1.403-1.403c0-0.702,0.701-0.702,1.401-0.702c0.702,0,1.403,0,1.403,0.702
		l2.807,2.807c-0.7,1.402-2.104,2.104-2.807,2.807c-0.701,0.702-2.104,1.403-3.508,2.104c-1.403,0.702-2.104,0.702-3.508,0.702
		c-1.404,0-2.808,0-3.509,0c-2.104,0-4.209-0.702-6.313-1.403c-2.104-0.7-3.508-2.104-4.911-3.508
		c-1.402-1.402-2.806-3.508-3.508-5.611c-0.701-2.105-1.402-4.911-1.402-7.719c0-2.807,0.701-4.911,1.402-7.016
		c0.702-2.104,2.104-4.209,3.508-5.612c1.403-1.402,3.509-2.807,5.613-4.21c2.104-0.701,4.911-1.402,7.717-1.402
		c2.807,0,4.911,0.701,7.016,1.402c2.105,0.702,3.509,2.104,5.613,3.508L344.473,418.311z"/>
	<path fill="#333333" d="M362.013,400.07c0,0.702,0,1.403-0.702,2.104c0,0.702-0.701,1.402-1.402,1.402
		c-0.701,0.702-1.402,0.702-2.104,1.403c-0.701,0-1.403,0.702-2.104,0.702c-0.702,0-1.403,0-2.104-0.702
		c-0.702,0-1.403-0.701-1.403-1.403c-0.702-0.7-0.702-1.402-1.402-1.402c0-0.701-0.701-1.402-0.701-2.104
		c0-0.701,0-1.402,0.701-2.104c0.7-0.701,0.7-1.403,1.402-1.403c0.701-0.701,1.403-0.701,1.403-1.403
		c0.701,0,1.402-0.701,2.104-0.701c0.7,0,1.402,0,2.104,0.701c0.702,0,1.403,0.702,2.104,1.403c0.701,0.702,0.701,1.403,1.402,1.403
		C362.013,398.668,362.013,399.369,362.013,400.07z M361.311,410.594v35.779h-8.419v-35.779H361.311z"/>
	<path fill="#333333" d="M385.164,409.892c2.807,0,4.911,0.701,7.016,1.403c2.105,0.7,4.21,2.104,5.611,3.508
		c1.403,1.402,2.808,3.508,3.509,5.611c0.702,2.104,1.402,4.911,1.402,7.719c0,2.806-0.7,5.611-1.402,7.717
		c-0.701,2.104-2.104,4.21-3.509,5.613c-1.401,1.401-3.506,2.806-5.611,3.508c-2.104,0.701-4.911,1.401-7.016,1.401
		c-2.807,0-4.911-0.7-7.017-1.401c-2.104-0.702-4.209-2.105-5.611-3.508c-1.403-1.403-2.808-3.51-3.509-5.613
		c-0.701-2.104-1.402-4.911-1.402-7.717c0-2.808,0.701-5.613,1.402-7.719c0.701-2.104,2.104-4.209,3.509-5.611
		c1.403-1.403,3.508-2.808,5.611-3.508C380.253,409.892,382.359,409.892,385.164,409.892z M385.164,440.06
		c2.807,0,4.911-0.702,6.313-2.807c1.403-2.105,2.104-4.911,2.104-9.12c0-4.21-0.701-7.017-2.104-9.121
		c-1.402-2.104-3.508-2.807-6.313-2.807c-2.807,0-5.612,0.701-7.017,2.807c-1.402,2.104-2.104,4.911-2.104,9.121
		c0,3.508,0.701,7.016,2.104,9.12C380.253,439.358,382.359,440.06,385.164,440.06z"/>
	<path fill="#333333" d="M409.018,446.374v-35.779h5.612c1.402,0,2.104,0.702,2.104,1.402l0.702,2.808
		c0.701-0.701,1.403-1.403,2.104-2.104c0.702-0.702,1.403-1.402,2.808-1.402c0.701-0.702,2.104-0.702,2.806-0.702s2.105,0,3.509,0
		c2.104,0,3.509,0,4.91,0.702c1.403,0.7,2.808,1.402,3.508,2.807c0.702,1.402,2.105,2.806,2.105,4.209
		c0.701,1.403,0.701,3.508,0.701,5.612v23.151h-8.419v-23.151c0-2.104-0.701-4.209-1.403-4.911
		c-0.701-1.402-2.806-2.104-4.911-2.104c-1.402,0-2.806,0-4.209,0.702c-1.403,0.701-2.807,1.402-3.508,2.807v25.958h-8.418V446.374z
		"/>
	<path fill="#333333" d="M463.74,409.892c2.104,0,4.21,0.701,6.314,1.403c2.104,0.7,3.508,2.104,4.911,3.508
		c1.402,1.403,2.104,2.807,3.508,4.911c0.701,2.104,1.403,4.209,1.403,7.016c0,0.701,0,1.403,0,1.403c0,0.701,0,0.701,0,0.701
		l-0.702,0.701h-0.701h-22.45c0,3.509,1.402,6.313,2.806,8.418c1.403,1.403,4.21,2.808,7.017,2.808c1.402,0,2.807,0,3.508-0.701
		c0.702,0,2.104-0.702,2.807-1.403c0.702-0.702,1.403-0.701,2.104-1.402c0.702,0,1.403-0.701,1.403-0.701h0.701
		c0,0,0.701,0,0.701,0.701l2.808,2.807c-0.702,1.403-2.105,2.104-3.509,2.806c-1.402,0.702-2.104,1.403-3.508,2.105
		c-1.403,0.701-2.807,0.701-4.21,0.701c-1.402,0-2.807,0-4.209,0c-2.807,0-4.911-0.701-7.017-1.403
		c-2.104-0.701-4.209-2.104-5.612-3.508c-1.403-1.404-2.806-3.508-3.508-6.314c-0.701-2.104-1.403-4.91-1.403-8.419
		c0-2.806,0.702-4.91,1.403-7.016c0.702-2.104,2.104-4.209,3.508-5.612s3.508-2.807,5.612-3.508
		C458.828,410.594,460.934,409.892,463.74,409.892z M463.74,416.207c-2.807,0-4.209,0.701-5.611,2.104
		c-1.403,1.403-2.104,3.508-2.808,6.313h16.137c0-1.402,0-2.104-0.701-3.508c0-0.702-0.701-2.104-1.403-2.807
		c-0.701-0.701-1.402-1.403-2.104-2.104C466.547,415.506,465.144,416.207,463.74,416.207z"/>
	<path fill="#333333" d="M507.239,417.61c0,0.701-0.702,0.701-0.702,0.701h-0.7c-0.701,0-0.701,0-1.403-0.701
		c-0.701,0-0.701-0.702-1.403-0.702c-0.701,0-1.401-0.701-2.104-0.701c-0.701,0-2.104-0.701-2.808-0.701
		c-1.401,0-2.806,0.701-4.209,1.402c-0.7,0.702-1.402,1.403-1.402,2.808c0,0.7,0,1.402,0.702,2.104
		c0.7,0.701,1.401,0.701,2.104,1.403c0.701,0.701,2.104,0.701,2.806,1.403c0.702,0,2.105,0.7,3.509,0.7
		c1.402,0.702,2.104,0.702,3.509,1.403c0.7,0.701,2.104,1.403,2.806,2.104s1.403,1.402,2.105,2.807c0.7,0.701,0.7,2.104,0.7,3.508
		s0,3.508-0.7,4.911c-0.702,1.403-1.403,2.806-2.808,3.508c-1.403,1.403-2.807,2.104-4.21,2.808c-1.402,0.7-3.508,0.7-6.313,0.7
		c-1.403,0-2.105,0-3.508,0c-1.403,0-2.105-0.7-3.509-0.7c-1.402,0-2.104-0.702-2.807-1.403c-0.701-0.702-1.403-1.403-2.104-1.403
		l2.104-3.508c0-0.702,0.701-0.702,0.701-0.702s0.702,0,1.402,0c0.702,0,0.702,0,1.403,0.702c0.701,0.701,0.701,0.701,1.403,0.701
		c0.701,0.702,1.403,0.702,2.104,0.702c0.701,0,2.104,0.7,3.509,0.7c0.7,0,2.104,0,2.807-0.7c0.701,0,1.402-0.702,2.104-0.702
		s0.701-0.701,1.403-1.403c0-0.701,0-1.402,0-1.402c0-0.701,0-1.402-0.702-2.104c-0.701-0.701-1.401-0.701-2.104-1.403
		c-0.701-0.701-2.104-0.701-2.808-1.401c-1.401,0-2.104-0.702-3.508-0.702c-1.401-0.701-2.104-0.701-3.508-1.403
		c-1.402-0.701-2.104-1.402-2.806-2.104c-0.702-0.701-1.403-1.403-2.105-2.807c-2.104-2.104-2.104-3.509-2.104-4.911
		s0-2.807,0.701-4.21c0.701-1.402,1.402-2.807,2.807-3.508s2.807-2.104,4.21-2.104c1.401-0.702,3.508-0.702,5.612-0.702
		c2.807,0,4.91,0.702,7.016,1.402c2.104,0.702,3.508,2.104,4.911,3.509L507.239,417.61z"/>
	<path fill="#333333" d="M540.212,446.374h-9.822v-50.513h9.822V446.374z"/>
	<path fill="#333333" d="M550.033,446.374v-35.779h5.612c1.403,0,2.104,0.702,2.104,1.402l0.701,2.808
		c0.701-0.701,1.403-1.403,2.104-2.104c0.702-0.702,1.403-1.402,2.807-1.402c0.701-0.702,2.104-0.702,2.807-0.702
		c0.701,0,2.104,0,3.509,0c2.104,0,3.508,0,4.91,0.702c1.402,0.7,2.807,1.402,3.508,2.807c0.702,1.402,2.104,2.806,2.104,4.209
		c0.701,1.403,0.701,3.508,0.701,5.612v23.151h-8.419v-23.151c0-2.104-0.701-4.209-1.403-4.911c-0.7-1.402-2.806-2.104-4.911-2.104
		c-1.401,0-2.806,0-4.209,0.702c-1.402,0.701-2.807,1.402-3.508,2.807v25.958h-8.418V446.374z"/>
	<path fill="#333333" d="M600.548,447.076c-2.808,0-5.613-0.702-7.018-2.807c-1.401-2.104-2.806-4.209-2.806-7.016v-20.347h-3.508
		c-0.702,0-0.702,0-1.403-0.701c0,0-0.701-0.701-0.701-1.402v-3.508l5.612-0.702l2.104-9.821c0-0.702,0-0.702,0.701-1.403
		c0,0,0.702-0.702,1.403-0.702h4.21v11.227h9.12v7.016h-9.12v19.646c0,1.401,0,2.104,0.701,2.806
		c0.702,0.702,1.402,0.702,2.104,0.702c0.702,0,0.702,0,1.403,0c0.702,0,0.702,0,0.702-0.702c0,0,0.701,0,0.701-0.701h0.7h0.702
		c0,0,0,0,0.701,0.701l2.807,4.21c-1.402,0.701-2.807,2.104-4.21,2.104C604.056,445.674,601.949,447.076,600.548,447.076z"/>
	<path fill="#333333" d="M628.611,409.892c2.104,0,4.21,0.701,6.314,1.403c2.104,0.7,3.508,2.104,4.911,3.508
		c1.401,1.402,2.104,2.807,3.508,4.911c0.701,2.104,1.402,4.209,1.402,7.016c0,0.701,0,1.403,0,1.403c0,0.701,0,0.701,0,0.701
		l-0.701,0.701h-0.701h-22.45c0,3.509,1.402,6.313,2.806,8.418c1.403,1.403,4.21,2.808,7.017,2.808c1.402,0,2.807,0,3.508-0.701
		c0.702,0,2.104-0.702,2.807-1.403c0.701-0.702,1.403-0.701,2.104-1.402c0.702,0,1.402-0.701,1.402-0.701h0.702
		c0,0,0.701,0,0.701,0.701l2.808,2.807c-0.702,1.403-2.105,2.104-3.509,2.806c-1.402,0.702-2.807,2.105-4.21,2.808
		c-1.402,0.702-2.807,0.7-4.209,0.7s-2.807,0-4.21,0c-2.806,0-4.911-0.7-7.016-1.401c-2.104-0.702-4.209-2.105-5.612-3.508
		c-1.402-1.403-2.807-3.51-3.508-6.314c-0.702-2.104-1.403-4.911-1.403-8.419c0-2.807,0.701-4.911,1.403-7.016
		c0.701-2.105,2.104-4.21,3.508-5.613c1.402-1.402,3.508-2.806,5.612-3.508C623.698,410.594,626.506,409.892,628.611,409.892z
		 M629.313,416.207c-2.807,0-4.21,0.701-5.613,2.104c-1.402,1.403-2.104,3.508-2.807,6.313h16.137c0-1.402,0-2.104-0.701-3.508
		c0-0.702-0.701-2.104-1.402-2.807c-0.702-0.701-1.403-1.403-2.104-2.104C632.117,415.506,630.014,416.207,629.313,416.207z"/>
	<path fill="#333333" d="M663.69,409.892c1.402,0,2.806,0,4.209,0.701c1.403,0.702,2.807,0.702,3.508,1.402h10.523v3.509
		c0,0.701,0,0.701-0.701,1.402c-0.701,0.702-0.701,0-1.403,0l-3.508,0.702c0,0.701,0.702,1.402,0.702,2.104c0,0.7,0,1.402,0,2.104
		c0,2.104-0.702,3.508-1.403,4.911c-0.702,1.403-1.402,2.807-2.807,3.508s-2.807,2.104-4.209,2.104
		c-1.403,0.702-3.508,0.702-5.613,0.702c-1.402,0-2.806,0-4.209-0.702c-1.402,0.702-1.402,1.402-1.402,2.104
		c0,0.702,0,1.403,0.7,1.403c0.702,0,1.403,0.702,2.808,0.702c1.403,0,2.104,0,3.508,0s2.807,0,4.21,0c1.402,0,2.806,0,4.209,0.701
		c1.403,0,2.807,0.7,3.508,1.402c1.403,0.701,2.104,1.403,2.808,2.808c0.7,1.401,0.7,2.806,0.7,4.209c0,1.402-0.7,2.807-1.402,4.91
		c-0.701,1.403-2.104,2.808-3.508,4.21c-1.402,1.402-3.509,2.104-5.612,2.807c-2.104,0.702-2.808,1.403-5.612,1.403
		c-2.807,0-4.911,0-7.016-0.702c-2.105-0.701-3.508-1.402-4.911-2.104c-1.403-0.701-2.105-2.104-2.808-2.806
		c-0.7-1.403-0.7-2.105-0.7-3.508c0-1.403,0.7-2.808,1.401-4.21c0.702-1.403,2.808-2.104,4.21-2.808
		c-0.7-0.7-1.402-1.401-2.104-2.104c-0.702-0.701-0.702-2.104-0.702-3.508c0-0.701,0-1.403,0-1.403c0-0.701,0.702-1.403,0.702-1.403
		c0.701-0.701,0.701-1.401,1.403-1.401c0.7-0.702,1.401-0.702,2.104-1.403c-2.104-0.702-3.508-2.104-4.21-4.21
		c-0.701-1.403-1.403-3.508-1.403-5.612c0-2.104,0.702-3.508,1.403-4.911c0.702-1.402,1.403-2.807,2.807-3.508
		c1.404-0.701,2.808-2.104,4.209-2.104C659.48,409.892,661.584,409.892,663.69,409.892z M672.81,447.777
		c0-0.701,0-1.403-0.701-1.403c-0.702-0.7-0.702-0.7-1.403-1.401c-0.7,0-1.402-0.702-2.807-0.702c-0.701,0-2.104,0-2.806,0
		s-2.105,0-3.509,0c-1.402,0-2.104,0-3.509-0.701c-0.7,0.701-2.104,1.403-2.104,2.104c-0.701,0.7-0.701,1.402-0.701,2.807
		c0,0.701,0,1.403,0.701,2.104c0.702,0.7,0.702,0.7,1.403,1.402c0.7,0.701,1.402,0.701,2.807,0.701c1.402,0,2.104,0,4.209,0
		c1.403,0,2.807,0,4.21-0.701c1.402,0,2.104-0.702,2.806-0.702s1.403-0.7,1.403-1.401C672.81,449.18,672.81,448.479,672.81,447.777z
		 M663.69,427.431c1.402,0,2.104,0,2.806-0.701c0.702-0.701,1.403-0.701,2.105-1.403c0.701-0.7,0.701-1.402,1.402-2.104
		c0-0.702,0.701-1.403,0.701-2.104c0-2.104-0.701-3.508-1.402-4.21c-1.403-0.7-2.808-1.402-4.911-1.402
		c-2.104,0-3.508,0.701-4.911,1.402c-1.403,0.702-1.403,2.104-1.403,4.21c0,0.701,0,1.402,0.702,2.104
		c0,0.701,0.701,1.403,1.403,2.104c0.701,0.701,1.402,0.701,2.104,1.403C661.584,427.431,662.285,427.431,663.69,427.431z"/>
	<path fill="#333333" d="M686.841,446.374v-35.779h4.911c0.701,0,1.402,0,2.104,0.702c0,0,0.701,0.7,0.701,1.402v4.209
		c1.403-2.104,2.807-4.209,4.209-5.611c1.403-1.403,3.508-2.104,5.613-2.104c2.104,0,3.508,0.701,4.209,1.402l-1.403,6.313
		c0,0.702,0,0.702-0.701,0.702c-0.702,0-0.702,0-0.702,0c-0.701,0-0.701,0-1.401,0c-0.702,0-1.403,0-2.105,0
		c-2.104,0-3.508,0.701-4.91,1.402c-1.402,0.702-2.104,2.104-3.508,4.21v22.45h-7.017V446.374L686.841,446.374z"/>
	<path fill="#333333" d="M742.266,446.374h-4.209c-0.702,0-1.403,0-2.105-0.7c-0.7,0-0.7-0.701-0.7-1.403l-0.702-2.806
		c-0.701,0.7-2.104,1.401-2.807,2.104c-0.702,0.701-2.104,1.403-2.807,1.403c-0.701,0.701-2.104,0.701-2.807,0.701
		c-0.701,0-2.104,0-3.509,0c-1.401,0-2.806,0-4.209-0.701c-1.402-0.702-2.104-0.702-3.508-2.105
		c-0.702-0.701-1.403-2.104-2.104-2.806c-0.702-0.702-0.702-2.807-0.702-4.21s0.702-2.806,1.402-4.209
		c0.701-1.403,2.104-2.808,3.509-3.508c1.402-1.403,4.21-2.104,6.313-2.808c2.807-0.701,6.313-1.402,10.523-1.402l0,0
		c0-2.104-0.701-4.209-1.403-5.612c-0.701-1.403-2.807-1.403-4.209-1.403c-1.403,0-2.807,0-3.508,0.702
		c-0.702,0-1.403,0.701-2.105,1.402c-0.7,0.702-1.401,0.702-2.104,1.402c-0.701,0-1.403,0.702-2.104,0.702s-1.402,0-1.402-0.702
		c-0.701,0-0.701-0.7-0.701-1.402l-1.403-2.807c4.209-3.508,9.12-5.612,14.732-5.612c2.104,0,4.21,0,5.612,0.702
		c1.403,0.7,2.808,1.402,4.209,2.806c1.403,1.403,2.105,2.807,2.808,4.21s0.701,3.508,0.701,5.612v22.449L742.266,446.374
		L742.266,446.374z M725.428,440.761c0.701,0,1.402,0,2.104,0c0.702,0,1.403-0.701,2.105-0.701c0.701,0,1.401-0.702,2.104-1.403
		c0.701-0.701,1.403-0.701,2.104-1.402v-6.314c-2.808,0-4.911,0-6.314,0.702c-1.401,0-2.806,0.701-4.209,1.403
		c-0.702,0.7-2.104,1.401-2.104,1.401c-0.702,0.702-0.702,1.403-0.702,2.105c0,1.401,0.702,2.806,1.402,3.508
		C723.323,440.761,724.025,440.761,725.428,440.761z"/>
	<path fill="#333333" d="M759.104,394.459v51.916h-8.419v-51.916H759.104z"/>
	<path fill="#333333" d="M783.657,409.892c2.105,0,4.21,0.701,6.314,1.403c2.104,0.7,3.508,2.104,4.911,3.508
		c1.402,1.403,2.104,2.807,3.508,4.911c0.701,2.104,1.403,4.209,1.403,7.016c0,0.701,0,1.403,0,1.403c0,0.701,0,0.701,0,0.701
		l-0.702,0.701h-0.701h-22.45c0,3.509,1.402,6.313,2.806,8.418c1.403,1.403,4.211,2.808,7.018,2.808c1.402,0,2.806,0,3.508-0.701
		c0.701,0,2.104-0.702,2.807-1.403c0.701-0.702,1.402-0.701,2.104-1.402c0.702,0,1.403-0.701,1.403-0.701h0.702c0,0,0.7,0,0.7,0.701
		l2.808,2.807c-0.702,1.403-2.105,2.104-3.508,2.806c-1.403,0.702-2.105,1.403-3.509,2.105c-1.402,0.701-2.807,0.701-4.21,0.701
		c-1.402,0-2.806,0-4.209,0c-2.807,0-4.911-0.701-7.016-1.403c-2.105-0.701-4.21-2.104-5.613-3.508
		c-1.402-1.404-2.806-3.508-3.508-6.314c-0.701-2.104-1.403-4.91-1.403-8.419c0-2.806,0.702-4.91,1.403-7.016
		c0.702-2.104,2.104-4.209,3.508-5.612c1.404-1.403,3.508-2.807,5.613-3.508C778.046,410.594,780.853,409.892,783.657,409.892z
		 M783.657,416.207c-2.806,0-4.209,0.701-5.611,2.104c-1.403,1.403-2.104,3.508-2.808,6.313h16.138c0-1.402,0-2.104-0.702-3.508
		c0-0.702-0.701-2.104-1.402-2.807c-0.702-0.701-1.403-1.403-2.104-2.104C786.465,415.506,785.062,416.207,783.657,416.207z"/>
	<path fill="#333333" d="M827.156,417.61c0,0.701-0.702,0.701-0.702,0.701h-0.7c-0.701,0-0.701,0-1.403-0.701
		c-0.701,0-0.701-0.702-1.403-0.702c-0.701,0-1.401-0.701-2.104-0.701c-0.701,0-2.104-0.701-2.808-0.701
		c-1.401,0-2.806,0.701-4.209,1.402c-0.701,0.702-1.402,1.403-1.402,2.808c0,0.7,0,1.402,0.701,2.104s1.402,0.701,2.104,1.403
		c0.701,0.701,2.104,0.701,2.807,1.403c0.701,0,2.104,0.7,3.509,0.7c1.401,0.702,2.104,0.702,3.508,1.403
		c0.701,0.701,2.104,1.403,2.806,2.104s1.403,1.402,2.105,2.807c0.7,0.701,0.7,2.104,0.7,3.508s0,3.508-0.7,4.911
		c-0.702,1.403-1.403,2.806-2.808,3.508c-1.402,1.403-2.807,2.104-4.209,2.808c-1.402,0.7-3.509,0.7-6.313,0.7
		c-1.403,0-2.105,0-3.509,0c-1.402,0-2.104-0.7-3.508-0.7c-1.402,0-2.104-0.702-2.807-1.403c-0.701-0.702-1.403-1.403-2.104-1.403
		l2.104-3.508c0-0.702,0.701-0.702,0.701-0.702s0.702,0,1.402,0c0.702,0,0.702,0,1.403,0.702c0.701,0.701,0.701,0.701,1.403,0.701
		c0.701,0.702,1.402,0.702,2.104,0.702s2.104,0.7,3.508,0.7c0.701,0,2.104,0,2.808-0.7c0.701,0,1.403-0.702,2.104-0.702
		c0.702,0,0.701-0.701,1.403-1.403c0-0.701,0-1.402,0-1.402c0-0.701,0-1.402-0.702-2.104c-0.701-0.701-1.401-0.701-2.104-1.403
		c-0.701-0.701-2.104-0.701-2.808-1.401c-1.401,0-2.104-0.702-3.508-0.702c-1.402-0.701-2.104-0.701-3.508-1.403
		c-1.402-0.701-2.104-1.402-2.806-2.104c-0.702-0.701-1.403-1.403-2.104-2.807c-0.702-1.402-0.702-2.807-0.702-4.21
		c0-1.402,0-2.807,0.702-4.209c0.701-1.403,1.402-2.807,2.806-3.508c1.403-0.702,2.808-2.105,4.21-2.105
		c1.402-0.7,3.509-0.7,5.612-0.7c2.808,0,4.911,0.7,7.017,1.402c2.104,0.701,3.508,2.104,4.91,3.508L827.156,417.61z"/>
</g>
<g>
	<g id="toga_3_">
		<path fill="#F3AA42" d="M298.87,133.471c-66.649,0-121.372,43.498-130.492,112.252c-9.822,68.053,32.974,112.252,99.623,112.252
			c66.648,0,121.373-43.497,130.492-112.252C407.615,176.969,365.521,133.471,298.87,133.471z M333.949,299.745
			c-30.869,0-47.707-22.45-43.498-52.618c4.21-30.869,27.361-52.618,58.23-52.618c20.346,0,34.377,9.12,40.691,24.557l0,0
			c-5.613-7.718-14.733-11.927-27.361-11.927c-23.854,0-41.394,16.837-44.901,39.988c-3.507,23.152,9.822,39.99,32.976,39.99
			c11.927,0,22.45-4.21,30.167-11.927c0,0,0,0,0,0.701C370.432,290.625,353.594,299.745,333.949,299.745z M390.075,235.2
			c-1.403,0-2.808-0.701-4.209-0.701c-7.018,0-12.63,4.911-13.33,11.927c-0.702,7.017,2.806,11.928,9.821,11.928
			c1.402,0,2.807,0,4.209-0.702c-0.7,2.104-1.402,4.21-1.402,6.313c-3.509,2.808-8.419,4.209-13.33,4.209
			c-12.628,0-19.645-9.119-18.24-21.747c2.104-12.63,11.225-21.749,23.854-21.749c4.91,0,9.119,1.402,12.628,4.209
			C390.075,230.991,390.075,233.095,390.075,235.2z M289.049,337.632c-52.618,0-82.085-37.887-74.367-90.505
			c7.017-52.617,47.006-90.503,100.325-90.503c32.271,0,55.425,14.031,67.352,37.185c-11.226-15.436-29.467-24.557-54.021-24.557
			c-45.604,0-79.979,32.976-86.995,78.576c-6.314,45.604,18.942,78.577,64.545,78.577c24.555,0,45.602-9.12,61.036-24.556
			C347.981,322.897,320.619,337.632,289.049,337.632z"/>
		<path fill="#424242" d="M84.189,352.363h14.733c0,0,7.717-0.701,8.419-8.419l1.403-7.717l21.748-155.049h38.587h14.732
			c0,0,7.717-0.701,8.419-8.42l1.403-7.717l4.209-24.556H29.466l-6.314,39.99h61.037L59.634,352.363H84.189"/>
		<path fill="#424242" d="M733.146,267.472h-11.927h-32.272l35.078-66.649c0,0,13.33,50.514,15.436,58.23
			C741.565,268.174,733.146,267.472,733.146,267.472 M813.825,343.944c-2.104-7.717-2.807-10.522-2.807-10.522l-56.827-194.337
			h-38.587L592.129,352.363h32.271h10.523c0,0,8.419,1.403,15.435-11.927c5.612-10.523,17.539-32.974,17.539-32.974h82.786
			l11.927,44.899h36.481h7.718C807.512,352.363,815.931,353.065,813.825,343.944"/>
		<path fill="#424242" d="M557.05,294.834l3.508-26.66h-38.587l6.313-43.496h83.487l-11.927,85.592c0,0-1.403,6.314-2.807,16.137
			c-1.402,9.12-4.91,12.628-8.419,14.031c-3.508,1.403-9.121,3.508-9.121,3.508s-35.077,13.33-75.77,13.33
			c-72.964,0-104.535-51.215-100.325-108.744c4.911-57.529,59.634-115.76,126.984-115.76c66.649,0,88.397,30.168,88.397,30.168
			s-27.36,20.346-32.974,25.958c-8.419,8.419-11.927,3.508-11.927,3.508l-5.612-4.21c-7.718-5.612-18.241-11.225-35.079-11.225
			c-51.917,0-74.367,34.377-80.681,72.964c-6.314,38.586,23.854,65.246,54.021,65.246c17.54,0,31.571-3.508,39.288-6.313
			C555.647,303.954,557.05,294.834,557.05,294.834L557.05,294.834"/>
		
			<linearGradient id="SVGID_1_" gradientUnits="userSpaceOnUse" x1="293.9031" y1="238.4807" x2="222.8985" y2="444.6929" gradientTransform="matrix(1 0 0 -1 24.9448 586.6401)">
			<stop  offset="0.2121" style="stop-color:#F6BD54;stop-opacity:0"/>
			<stop  offset="0.2425" style="stop-color:#F6BF58;stop-opacity:0.223"/>
			<stop  offset="0.276" style="stop-color:#F8C466;stop-opacity:0.4684"/>
			<stop  offset="0.3108" style="stop-color:#FACD7C;stop-opacity:0.7235"/>
			<stop  offset="0.3212" style="stop-color:#FBD084;stop-opacity:0.8"/>
			<stop  offset="0.4485" style="stop-color:#F6BD54;stop-opacity:0"/>
		</linearGradient>
		<path fill="url(#SVGID_1_)" d="M298.87,132.77c-66.649,0-121.372,43.498-130.492,112.252
			c-9.822,68.053,32.974,112.252,99.623,112.252c66.648,0,121.373-43.497,130.492-112.252
			C407.615,176.268,365.521,132.77,298.87,132.77z M333.949,299.044c-30.869,0-47.707-22.449-43.498-52.617
			c4.21-30.869,27.361-52.618,58.23-52.618c20.346,0,34.377,9.12,40.691,24.556l0,0c-5.613-7.718-14.733-11.927-27.361-11.927
			c-23.854,0-41.394,16.837-44.901,39.989c-3.507,23.151,9.822,39.989,32.976,39.989c11.927,0,22.45-4.21,30.167-11.927
			c0,0,0,0,0,0.701C370.432,289.924,353.594,299.044,333.949,299.044z M390.075,234.499c-1.403,0-2.808-0.701-4.209-0.701
			c-7.018,0-12.63,4.911-13.33,11.928c-0.702,7.016,2.806,11.927,9.821,11.927c1.402,0,2.807,0,4.209-0.702
			c-0.7,2.104-1.402,4.21-1.402,6.314c-3.509,2.807-8.419,4.209-13.33,4.209c-12.628,0-19.645-9.12-18.24-21.748
			c2.104-12.629,11.225-21.749,23.854-21.749c4.91,0,9.119,1.402,12.628,4.209C390.075,230.29,390.075,232.394,390.075,234.499z
			 M289.049,336.929c-52.618,0-82.085-37.887-74.367-90.505c7.017-52.617,47.006-90.503,100.325-90.503
			c32.271,0,55.425,14.031,67.352,37.185c-11.226-15.436-29.467-24.557-54.021-24.557c-45.604,0-79.979,32.976-86.995,78.576
			c-6.314,45.604,18.942,78.577,64.545,78.577c24.555,0,45.602-9.12,61.036-24.556C347.981,322.196,320.619,336.929,289.049,336.929
			z"/>
	</g>
</g>
</svg>
